<?xml version="1.0" encoding="UTF-8" standalone="no"?>
<svg
   version="1.1"
   id="svg1"
   width="327"
   height="76"
   viewBox="0 0 327 76"
   sodipodi:docname="logo.svg"
   xml:space="preserve"
   inkscape:version="1.2.2 (b0a8486541, 2022-12-01)"
   xmlns:inkscape="http://www.inkscape.org/namespaces/inkscape"
   xmlns:sodipodi="http://sodipodi.sourceforge.net/DTD/sodipodi-0.dtd"
   xmlns="http://www.w3.org/2000/svg"
   xmlns:svg="http://www.w3.org/2000/svg"><sodipodi:namedview
     id="namedview1950"
     pagecolor="#ffffff"
     bordercolor="#000000"
     borderopacity="0.25"
     inkscape:showpageshadow="2"
     inkscape:pageopacity="0.0"
     inkscape:pagecheckerboard="0"
     inkscape:deskcolor="#d1d1d1"
     showgrid="false"
     inkscape:zoom="2.5311433"
     inkscape:cx="116.74566"
     inkscape:cy="15.210518"
     inkscape:window-width="1366"
     inkscape:window-height="694"
     inkscape:window-x="0"
     inkscape:window-y="0"
     inkscape:window-maximized="1"
     inkscape:current-layer="g1" /><defs
     id="defs1"><clipPath
       clipPathUnits="userSpaceOnUse"
       id="clipPath13"><path
         d="M 0,0 H 32 V 13 H 0 Z"
         transform="matrix(0,0.48370247,-0.48370247,0,5.9763957,-11.157472)"
         id="path13" /></clipPath><clipPath
       clipPathUnits="userSpaceOnUse"
       id="clipPath15"><path
         d="M 0,0 H 833 V 45 H 0 Z"
         transform="matrix(0.34147403,0,0,0.34147403,-4.079386,-11.306972)"
         id="path15" /></clipPath><clipPath
       clipPathUnits="userSpaceOnUse"
       id="clipPath16"><path
         d="M 0,0 H 833 V 45 H 0 Z"
         transform="matrix(0.34147403,0,0,0.34147403,-16.845011,-11.306972)"
         id="path16" /></clipPath><clipPath
       clipPathUnits="userSpaceOnUse"
       id="clipPath17"><path
         d="M 0,0 H 833 V 45 H 0 Z"
         transform="matrix(0.34147403,0,0,0.34147403,-153.18254,-11.306972)"
         id="path17" /></clipPath><clipPath
       clipPathUnits="userSpaceOnUse"
       id="clipPath1097"><path
         d="M 0,0 H 1050 V 600 H 0 Z"
         clip-rule="evenodd"
         id="path1095" /></clipPath><clipPath
       clipPathUnits="userSpaceOnUse"
       id="clipPath1109"><path
         d="M 0,0 H 1050 V 600 H 0 Z"
         clip-rule="evenodd"
         id="path1107" /></clipPath><clipPath
       clipPathUnits="userSpaceOnUse"
       id="clipPath1121"><path
         d="M 0,0 H 1050 V 600 H 0 Z"
         clip-rule="evenodd"
         id="path1119" /></clipPath><clipPath
       clipPathUnits="userSpaceOnUse"
       id="clipPath1151"><path
         d="M 0,0 H 32 V 13 H 0 Z"
         id="path1149" /></clipPath><clipPath
       clipPathUnits="userSpaceOnUse"
       id="clipPath1169"><path
         d="M 0,0 H 833 V 45 H 0 Z"
         id="path1167" /></clipPath></defs><g
     id="g1"
     inkscape:groupmode="layer"
     inkscape:label="1"><g
       id="g1955"
       transform="translate(0.3400947,-1.3603306)"><path
         id="path7"
         d="M 35.537909,22.449345 V 56.030806 H 32.591368 L 11.003446,28.762779 V 56.030806 H 7.4555706 V 22.449345 H 10.372044 L 32.0201,49.687307 V 22.449345 Z M 68.258042,44.456176 H 47.151187 c 0.1804,2.630597 1.180119,4.750108 3.006675,6.373562 1.819039,1.608422 4.126662,2.405118 6.91535,2.405118 1.563471,0 2.991641,-0.270576 4.299544,-0.811727 1.322937,-0.556183 2.465473,-1.390458 3.427611,-2.49531 l 1.924271,2.224734 c -1.127504,1.345363 -2.525608,2.367539 -4.209345,3.066525 -1.683738,0.706505 -3.532842,1.052239 -5.532281,1.052239 -2.58574,0 -4.885845,-0.548667 -6.885284,-1.653518 -2.006955,-1.097335 -3.570426,-2.623082 -4.690412,-4.569724 -1.127502,-1.961675 -1.683737,-4.178892 -1.683737,-6.644139 0,-2.465246 0.526169,-4.667431 1.593537,-6.614073 1.082403,-1.939127 2.555674,-3.457358 4.419811,-4.539663 1.879173,-1.097334 3.998877,-1.653518 6.344083,-1.653518 2.322657,0 4.404778,0.556184 6.253882,1.653518 1.864138,1.082305 3.322376,2.600536 4.389746,4.539663 1.059853,1.924094 1.593537,4.133796 1.593537,6.614073 z M 56.08101,33.512889 c -2.450438,0 -4.494977,0.781663 -6.133616,2.344991 -1.646154,1.548293 -2.578224,3.570096 -2.796207,6.072922 H 65.040901 C 64.815399,39.427976 63.875814,37.406173 62.214625,35.85788 60.568473,34.294552 58.523934,33.512889 56.08101,33.512889 Z M 98.550287,30.80713 V 56.030806 H 95.27301 v -4.599789 c -0.902002,1.525747 -2.134738,2.720791 -3.698209,3.577614 -1.56347,0.841792 -3.359959,1.262686 -5.381949,1.262686 -3.292307,0 -5.885563,-0.91695 -7.787285,-2.765885 -1.909238,-1.841418 -2.856341,-4.53966 -2.856341,-8.087209 V 30.80713 h 3.397542 v 14.280389 c 0,2.668178 0.646435,4.689981 1.954337,6.072923 1.322938,1.367911 3.20211,2.04435 5.652548,2.04435 2.645876,0 4.727997,-0.796695 6.253885,-2.405118 1.540919,-1.623454 2.315139,-3.878252 2.315139,-6.764394 V 30.80713 Z m 13.334603,4.930494 c 0.78174,-1.698616 1.96185,-2.983851 3.54787,-3.848191 1.5785,-0.856822 3.54788,-1.292751 5.89308,-1.292751 v 3.307039 l -0.8118,-0.03007 c -2.66843,0 -4.75054,0.811728 -6.25388,2.435182 -1.50334,1.623454 -2.255,3.908316 -2.255,6.854585 v 12.867389 h -3.39755 V 30.80713 h 3.27728 z m 26.18813,20.533693 c -2.42789,0 -4.62276,-0.548667 -6.58462,-1.653518 -1.94682,-1.097335 -3.48022,-2.623082 -4.60021,-4.569724 -1.1275,-1.961675 -1.68374,-4.178892 -1.68374,-6.644139 0,-2.465246 0.55624,-4.667431 1.68374,-6.614073 1.11999,-1.939127 2.65339,-3.457358 4.60021,-4.539663 1.96186,-1.097334 4.15673,-1.653518 6.58462,-1.653518 2.42037,0 4.60772,0.556184 6.55455,1.653518 1.96185,1.082305 3.49525,2.600536 4.60021,4.539663 1.09743,1.946642 1.65367,4.148827 1.65367,6.614073 0,2.465247 -0.55624,4.682464 -1.65367,6.644139 -1.10496,1.946642 -2.63836,3.472389 -4.60021,4.569724 -1.94683,1.104851 -4.13418,1.653518 -6.55455,1.653518 z m 0,-3.036461 c 1.804,0 3.41258,-0.398348 4.84074,-1.202559 1.42065,-0.819243 2.52561,-1.984222 3.30735,-3.487421 0.79676,-1.503199 1.20266,-3.216845 1.20266,-5.14094 0,-1.924094 -0.4059,-3.63774 -1.20266,-5.140939 -0.78174,-1.503199 -1.8867,-2.653147 -3.30735,-3.457356 -1.42816,-0.819245 -3.03674,-1.232623 -4.84074,-1.232623 -1.78897,0 -3.39002,0.413378 -4.81068,1.232623 -1.42817,0.804209 -2.54816,1.954157 -3.36748,3.457356 -0.82683,1.503199 -1.23273,3.216845 -1.23273,5.140939 0,1.924095 0.4059,3.637741 1.23273,5.14094 0.81932,1.503199 1.93931,2.668178 3.36748,3.487421 1.42066,0.804211 3.02171,1.202559 4.81068,1.202559 z m 0,0"
         style="fill:#29335c;fill-opacity:1;fill-rule:nonzero;stroke:none;stroke-width:1.92418"
         aria-label="Neuro"
         inkscape:label="neuro" /><path
         id="path10"
         style="fill:#29335c;fill-opacity:1;fill-rule:nonzero;stroke:none;stroke-width:1.96763"
         d="m 212.57779,30.902529 c 3.49861,0 6.17667,0.918637 8.02668,2.755915 1.86493,1.821435 2.80486,4.521914 2.80486,8.109352 v 16.18703 h -4.3565 v -3.547843 c -0.76088,1.251249 -1.84256,2.209482 -3.25244,2.882622 -1.41734,0.657301 -3.08833,0.981992 -5.01294,0.981992 -2.82725,0 -5.09501,-0.728575 -6.8033,-2.185724 -1.69336,-1.45715 -2.53631,-3.357779 -2.53631,-5.701889 0,-2.359949 0.80564,-4.260578 2.41696,-5.70189 1.62622,-1.433391 4.20729,-2.154046 7.72829,-2.154046 h 7.22105 v -0.950315 c 0,-2.090693 -0.58187,-3.68247 -1.73067,-4.783251 -1.13388,-1.116621 -2.80487,-1.678889 -5.01295,-1.678889 -1.49195,0 -2.95407,0.269255 -4.38633,0.791929 -1.43228,0.506835 -2.64076,1.203732 -3.61052,2.090691 l -1.9097,-3.642873 c 1.29054,-1.11662 2.84217,-1.971904 4.65489,-2.565851 1.80526,-0.586027 3.72988,-0.88696 5.75893,-0.88696 z m -1.04438,23.599485 c 1.74559,0 3.25992,-0.411802 4.53553,-1.235409 1.26816,-0.823606 2.18571,-1.995661 2.7452,-3.516165 v -3.737904 h -7.04202 c -3.87906,0 -5.8186,1.385875 -5.8186,4.149708 0,1.354198 0.48489,2.423302 1.46212,3.199393 0.99215,0.760252 2.36473,1.140377 4.11777,1.140377 z m 25.43774,-18.84791 c 0.79073,-1.536343 1.96937,-2.708398 3.52101,-3.516166 1.55162,-0.823607 3.43894,-1.235409 5.6694,-1.235409 v 4.719898 c -0.26109,-0.0396 -0.61169,-0.06336 -1.04437,-0.06336 -2.49155,0 -4.43855,0.784008 -5.84845,2.344109 -1.41734,1.568019 -2.11856,3.801259 -2.11856,6.715558 v 13.336085 h -4.56536 V 31.155945 h 4.38633 z m 0,0 m 43.96028,-4.498159 -11.07026,26.798881 h -4.65489 L 254.16586,31.155945 h 4.74439 l 8.68315,21.477118 8.86219,-21.477118 z m 13.36786,-0.253416 c 3.49863,0 6.17668,0.918637 8.02669,2.755915 1.86494,1.821435 2.80488,4.521914 2.80488,8.109352 v 16.18703 h -4.35649 v -3.547843 c -0.7609,1.251249 -1.84256,2.209482 -3.25246,2.882622 -1.41736,0.657301 -3.08833,0.981992 -5.01295,0.981992 -2.82725,0 -5.09501,-0.728575 -6.8033,-2.185724 -1.69336,-1.45715 -2.5363,-3.357779 -2.5363,-5.701889 0,-2.359949 0.80565,-4.260578 2.41695,-5.70189 1.62623,-1.433391 4.2073,-2.154046 7.7283,-2.154046 h 7.22104 v -0.950315 c 0,-2.090693 -0.58186,-3.68247 -1.73067,-4.783251 -1.13388,-1.116621 -2.80486,-1.678889 -5.01295,-1.678889 -1.49194,0 -2.95405,0.269255 -4.38632,0.791929 -1.43227,0.506835 -2.64075,1.203732 -3.61052,2.090691 L 283.8855,34.35534 c 1.29053,-1.11662 2.84216,-1.971904 4.65487,-2.565851 1.80525,-0.586027 3.72988,-0.88696 5.75892,-0.88696 z m -1.04436,23.599485 c 1.74558,0 3.25991,-0.411802 4.53553,-1.235409 1.26817,-0.823606 2.1857,-1.995661 2.74519,-3.516165 v -3.737904 h -7.042 c -3.87907,0 -5.8186,1.385875 -5.8186,4.149708 0,1.354198 0.48488,2.423302 1.4621,3.199393 0.99215,0.760252 2.36474,1.140377 4.11778,1.140377 z m 21.04395,-34.052949 h 4.56536 v 37.505761 h -4.56536 z m 0,0"
         inkscape:label="arval" /><path
         id="path8"
         style="fill:none;stroke:#feffaf;stroke-width:3.82722;stroke-linecap:butt;stroke-linejoin:miter;stroke-miterlimit:10;stroke-dasharray:none;stroke-opacity:1"
         d="m 179.65212,41.372954 h 7.74537 c 4.27766,0 7.74538,3.450675 7.74538,7.707294 v 3.794263 c 0,6.352135 -5.17486,11.501559 -11.55839,11.501559 h -7.61658 c -5.08552,0 -9.96274,-2.010283 -13.55875,-5.588611 -3.596,-3.578324 -5.61622,-8.431575 -5.61622,-13.492089 V 30.37976 c 0,-12.651069 10.30639,-22.9067879 23.01995,-22.9067879 h 48.07076 c 12.71357,0 23.01995,10.2557189 23.01995,22.9067879 v 32.522901 c 0,2.213237 0.88357,4.335826 2.45629,5.900823 1.57272,1.565001 3.7058,2.444205 5.92997,2.444205 h 4.93348 c 1.90691,0 3.45278,-1.538267 3.45278,-3.435812 V 64.37607 M 232.36372,24.756623 c -1.20766,0.02073 -2.81668,1.567464 -6.16392,1.589622 -3.34724,0.02216 -5.54985,-1.545701 -7.15033,-1.557488"
         inkscape:label="elephant"
         sodipodi:nodetypes="csssssssssssssssscczc" /></g></g></svg>
