<?xml version="1.0" encoding="UTF-8" standalone="no"?>
<svg
   xml:space="preserve"
   style="max-width: 100%;height: auto;"
   width="999"
   height="999"
   viewBox="0 0 999 999"
   version="1.1"
   id="svg434"
   sodipodi:docname="qr.svg"
   inkscape:version="1.4.2 (ebf0e940d0, 2025-05-08)"
   xmlns:inkscape="http://www.inkscape.org/namespaces/inkscape"
   xmlns:sodipodi="http://sodipodi.sourceforge.net/DTD/sodipodi-0.dtd"
   xmlns="http://www.w3.org/2000/svg"
   xmlns:svg="http://www.w3.org/2000/svg"><defs
   id="defs434" /><sodipodi:namedview
   id="namedview434"
   pagecolor="#505050"
   bordercolor="#ffffff"
   borderopacity="1"
   inkscape:showpageshadow="0"
   inkscape:pageopacity="0"
   inkscape:pagecheckerboard="1"
   inkscape:deskcolor="#505050"
   inkscape:zoom="0.82531182"
   inkscape:cx="713.06382"
   inkscape:cy="496.78193"
   inkscape:window-width="2560"
   inkscape:window-height="1368"
   inkscape:window-x="0"
   inkscape:window-y="0"
   inkscape:window-maximized="1"
   inkscape:current-layer="svg434" />
    <path
   id="path431"
   d="M 6,1.7 V 4.4 C 6,5.2 5.2,6 4.3,6 H 1.7 C 0.7,6 0,5.3 0,4.3 V 1.7 C 0,0.8 0.8,0 1.7,0 H 4.4 C 5.3,0 6,0.7 6,1.7 Z m 52,-52 v 2.7 c 0,0.8 -0.8,1.6 -1.7,1.6 h -2.6 c -1,0 -1.7,-0.7 -1.7,-1.7 v -2.6 c 0,-0.9 0.8,-1.7 1.7,-1.7 h 2.7 c 0.9,0 1.6,0.7 1.6,1.7 z m -52,0 v 2.7 C 6,-46.8 5.2,-46 4.3,-46 H 1.7 C 0.7,-46 0,-46.7 0,-47.7 v -2.6 C 0,-51.2 0.8,-52 1.7,-52 h 2.7 c 0.9,0 1.6,0.7 1.6,1.7 z M 0.5,10 H 5.6 C 8,10 10,8 10,5.6 V 0.5 C 10,-2 8,-4 5.5,-4 H 0.4 C -2,-4 -4,-2 -4,0.4 V 5.5 C -4,8 -2,10 0.5,10 Z M 8,0.8 V 5.2 C 8,6.7 6.7,8 5.2,8 H 0.8 C -0.8,8 -2,6.8 -2,5.2 V 0.8 C -2,-0.7 -0.7,-2 0.8,-2 H 5.2 C 6.8,-2 8,-0.8 8,0.8 Z M 52.5,-42 h 5.1 c 2.4,0 4.4,-2 4.4,-4.4 v -5.1 C 62,-54 60,-56 57.5,-56 h -5.1 c -2.4,0 -4.4,2 -4.4,4.4 v 5.1 c 0,2.5 2,4.5 4.5,4.5 z m 7.5,-9.2 v 4.4 c 0,1.5 -1.3,2.8 -2.8,2.8 h -4.4 c -1.6,0 -2.8,-1.2 -2.8,-2.8 v -4.4 c 0,-1.5 1.3,-2.8 2.8,-2.8 h 4.4 c 1.6,0 2.8,1.2 2.8,2.8 z M 0.5,-42 h 5.1 c 2.4,0 4.4,-2 4.4,-4.4 v -5.1 C 10,-54 8,-56 5.5,-56 H 0.4 c -2.4,0 -4.4,2 -4.4,4.4 v 5.1 c 0,2.5 2,4.5 4.5,4.5 z M 8,-51.2 v 4.4 C 8,-45.3 6.7,-44 5.2,-44 H 0.8 c -1.6,0 -2.8,-1.2 -2.8,-2.8 v -4.4 c 0,-1.5 1.3,-2.8 2.8,-2.8 h 4.4 c 1.6,0 2.8,1.2 2.8,2.8 z M 59.03,10.06 H 58 V 8 h 1.03 c 0.583667,0 1.03,0.4463333 1.03,1.03 v 0 c 0,0.5836667 -0.446333,1.03 -1.03,1.03 z m -0.97,0 H 57.03 C 56.446333,10.06 56,9.6136667 56,9.03 v 0 C 56,8.4463333 56.446333,8 57.03,8 h 1.03 z m -9.03,0 v 0 C 48.446333,10.06 48,9.6136667 48,9.03 V 8 h 2.06 v 1.03 c 0,0.5836667 -0.446333,1.03 -1.03,1.03 z m -4,0 H 44 V 8 h 1.03 c 0.583667,0 1.03,0.4463333 1.03,1.03 v 0 c 0,0.5836667 -0.446333,1.03 -1.03,1.03 z M 42,8 h 2.06 v 2.06 H 42 Z m 0.06,2.06 H 41.03 C 40.446333,10.06 40,9.6136667 40,9.03 V 8 h 2.06 z m -4,-1.03 A 1.03,1.03 0 0 1 37.03,10.06 1.03,1.03 0 0 1 36,9.03 1.03,1.03 0 0 1 37.03,8 1.03,1.03 0 0 1 38.06,9.03 Z m -8,0 A 1.03,1.03 0 0 1 29.03,10.06 1.03,1.03 0 0 1 28,9.03 1.03,1.03 0 0 1 29.03,8 1.03,1.03 0 0 1 30.06,9.03 Z m -4,0 A 1.03,1.03 0 0 1 25.03,10.06 1.03,1.03 0 0 1 24,9.03 1.03,1.03 0 0 1 25.03,8 1.03,1.03 0 0 1 26.06,9.03 Z m -5.03,1.03 v 0 C 20.446333,10.06 20,9.6136667 20,9.03 V 8 h 2.06 v 1.03 c 0,0.5836667 -0.446333,1.03 -1.03,1.03 z M 16.06,9.03 A 1.03,1.03 0 0 1 15.03,10.06 1.03,1.03 0 0 1 14,9.03 1.03,1.03 0 0 1 15.03,8 1.03,1.03 0 0 1 16.06,9.03 Z m 40,-2 A 1.03,1.03 0 0 1 55.03,8.06 1.03,1.03 0 0 1 54,7.03 1.03,1.03 0 0 1 55.03,6 1.03,1.03 0 0 1 56.06,7.03 Z M 51.03,8.06 H 50 V 6 h 1.03 c 0.583667,0 1.03,0.4463333 1.03,1.03 v 0 c 0,0.5836667 -0.446333,1.03 -1.03,1.03 z M 48,6 h 2.06 V 8.06 H 48 Z m 0.06,2.06 H 47.03 C 46.446333,8.06 46,7.6136667 46,7.03 V 6 h 2.06 z M 40,6 h 2.06 V 8.06 H 40 Z m 0.06,2.06 H 39.03 C 38.446333,8.06 38,7.6136667 38,7.03 v 0 C 38,6.4463333 38.446333,6 39.03,6 h 1.03 z m -5.03,0 H 34 V 6 h 1.03 c 0.583667,0 1.03,0.4463333 1.03,1.03 v 0 c 0,0.5836667 -0.446333,1.03 -1.03,1.03 z M 32,6 h 2.06 V 8.06 H 32 Z m 0.06,2.06 H 31.03 C 30.446333,8.06 30,7.6136667 30,7.03 v 0 C 30,6.4463333 30.446333,6 31.03,6 h 1.03 z m -4,-1.03 A 1.03,1.03 0 0 1 27.03,8.06 1.03,1.03 0 0 1 26,7.03 1.03,1.03 0 0 1 27.03,6 1.03,1.03 0 0 1 28.06,7.03 Z M 20,6 h 2.06 V 8.06 H 20 Z M 50.06,6.06 H 48 V 4 h 1.03 c 0.583667,0 1.03,0.4463333 1.03,1.03 z M 46,4 h 2.06 V 6.06 H 46 Z m 0.06,2.06 H 45.03 C 44.446333,6.06 44,5.6136667 44,5.03 V 4 h 2.06 z m -4,0 H 40 V 5.03 C 40,4.4463333 40.446333,4 41.03,4 v 0 c 0.583667,0 1.03,0.4463333 1.03,1.03 z m -19.03,0 H 22 V 4 h 1.03 c 0.583667,0 1.03,0.4463333 1.03,1.03 v 0 c 0,0.5836667 -0.446333,1.03 -1.03,1.03 z M 20,4 h 2.06 V 6.06 H 20 Z m 0.06,2.06 H 19.03 C 18.446333,6.06 18,5.6136667 18,5.03 V 4 h 2.06 z m -7.03,0 v 0 C 12.446333,6.06 12,5.6136667 12,5.03 V 4 h 2.06 v 1.03 c 0,0.5836667 -0.446333,1.03 -1.03,1.03 z m 46,-2 v 0 C 58.446333,4.06 58,3.6136667 58,3.03 V 2 h 2.06 v 1.03 c 0,0.5836667 -0.446333,1.03 -1.03,1.03 z m -4,0 H 54 V 2 h 2.06 v 1.03 c 0,0.5836667 -0.446333,1.03 -1.03,1.03 z m -0.97,0 H 53.03 C 52.446333,4.06 52,3.6136667 52,3.03 V 2 h 2.06 z M 46,2 h 2.06 V 4.06 H 46 Z m -2,0 h 2.06 V 4.06 H 44 Z m 0.06,2.06 H 43.03 C 42.446333,4.06 42,3.6136667 42,3.03 v 0 C 42,2.4463333 42.446333,2 43.03,2 h 1.03 z m -11.03,0 v 0 C 32.446333,4.06 32,3.6136667 32,3.03 V 2 h 2.06 v 1.03 c 0,0.5836667 -0.446333,1.03 -1.03,1.03 z m -6,0 H 26 V 2 h 2.06 v 1.03 c 0,0.5836667 -0.446333,1.03 -1.03,1.03 z m -0.97,0 H 25.03 C 24.446333,4.06 24,3.6136667 24,3.03 v 0 C 24,2.4463333 24.446333,2 25.03,2 h 1.03 z M 20,2 h 2.06 V 4.06 H 20 Z m 0.06,2.06 H 18 V 3.03 C 18,2.4463333 18.446333,2 19.03,2 h 1.03 z M 12,2 h 2.06 V 4.06 H 12 Z M 61.03,2.06 H 60 V 0 h 2.06 v 1.03 c 0,0.5836667 -0.446333,1.03 -1.03,1.03 z M 58,0 h 2.06 V 2.06 H 58 Z m -4,0 h 2.06 V 2.06 H 54 Z m -2,0 h 2.06 V 2.06 H 52 Z m -2,0 h 2.06 V 2.06 H 50 Z m -2,0 h 2.06 V 2.06 H 48 Z m -2,0 h 2.06 V 2.06 H 46 Z m -2,0 h 2.06 V 2.06 H 44 Z M 41.03,2.06 H 40 V 0 h 1.03 c 0.583667,0 1.03,0.44633333 1.03,1.03 v 0 c 0,0.5836667 -0.446333,1.03 -1.03,1.03 z M 38,0 h 2.06 V 2.06 H 38 Z m -2,0 h 2.06 V 2.06 H 36 Z m -2,0 h 2.06 V 2.06 H 34 Z m -2,0 h 2.06 V 2.06 H 32 Z m -2,0 h 2.06 V 2.06 H 30 Z m -2,0 h 2.06 V 2.06 H 28 Z m -2,0 h 2.06 V 2.06 H 26 Z M 23.03,2.06 H 22 V 0 h 1.03 c 0.583667,0 1.03,0.44633333 1.03,1.03 v 0 c 0,0.5836667 -0.446333,1.03 -1.03,1.03 z M 20,0 h 2.06 V 2.06 H 20 Z M 17.03,2.06 H 16 V 0 h 2.06 v 1.03 c 0,0.5836667 -0.446333,1.03 -1.03,1.03 z M 14,0 h 2.06 V 2.06 H 14 Z m 0.06,2.06 H 12 V 1.03 C 12,0.44633333 12.446333,0 13.03,0 h 1.03 z m 48,-2 H 60 V -2 h 1.03 c 0.583667,0 1.03,0.4463333 1.03,1.03 z M 58,-2 h 2.06 V 0.06 H 58 Z m -2,0 h 2.06 V 0.06 H 56 Z m -2,0 h 2.06 V 0.06 H 54 Z m -2,0 h 2.06 V 0.06 H 52 Z m -8,0 h 2.06 V 0.06 H 44 Z m 0.06,2.06 H 43.03 C 42.446333,0.06 42,-0.38633333 42,-0.97 V -2 h 2.06 z m -6,0 H 36 V -0.97 C 36,-1.5536667 36.446333,-2 37.03,-2 v 0 c 0.583667,0 1.03,0.4463333 1.03,1.03 z M 32,-2 h 2.06 V 0.06 H 32 Z m 0.06,2.06 H 30 V -0.97 C 30,-1.5536667 30.446333,-2 31.03,-2 h 1.03 z m -4,0 H 26 V -0.97 C 26,-1.5536667 26.446333,-2 27.03,-2 v 0 c 0.583667,0 1.03,0.4463333 1.03,1.03 z m -6,0 H 20 V -0.97 C 20,-1.5536667 20.446333,-2 21.03,-2 v 0 c 0.583667,0 1.03,0.4463333 1.03,1.03 z m -4,0 H 16 V -2 h 1.03 c 0.583667,0 1.03,0.4463333 1.03,1.03 z M 14,-2 h 2.06 V 0.06 H 14 Z m 44,-2 h 2.06 v 2.06 H 58 Z m -2,0 h 2.06 v 2.06 H 56 Z m -2,0 h 2.06 v 2.06 H 54 Z m -2,0 h 2.06 v 2.06 H 52 Z m -1.94,1.03 A 1.03,1.03 0 0 1 49.03,-1.94 1.03,1.03 0 0 1 48,-2.97 1.03,1.03 0 0 1 49.03,-4 1.03,1.03 0 0 1 50.06,-2.97 Z M 44,-4 h 2.06 v 2.06 H 44 Z m -2,0 h 2.06 v 2.06 H 42 Z m 0.06,2.06 H 41.03 C 40.446333,-1.94 40,-2.3863333 40,-2.97 V -4 h 2.06 z m -8,0 H 32 V -2.97 C 32,-3.5536667 32.446333,-4 33.03,-4 v 0 c 0.583667,0 1.03,0.4463333 1.03,1.03 z m -15.03,0 v 0 C 18.446333,-1.94 18,-2.3863333 18,-2.97 V -4 h 2.06 v 1.03 c 0,0.5836667 -0.446333,1.03 -1.03,1.03 z m -2.97,0 H 14 V -2.97 C 14,-3.5536667 14.446333,-4 15.03,-4 v 0 c 0.583667,0 1.03,0.4463333 1.03,1.03 z m 44.97,-2 H 60 V -6 h 2.06 v 1.03 c 0,0.5836667 -0.446333,1.03 -1.03,1.03 z M 58,-6 h 2.06 v 2.06 H 58 Z m 0.06,2.06 H 56 V -4.97 C 56,-5.5536667 56.446333,-6 57.03,-6 h 1.03 z M 52,-6 h 2.06 v 2.06 H 52 Z m -8,0 h 2.06 v 2.06 H 44 Z m -4,0 h 2.06 v 2.06 H 40 Z m -3.94,1.03 A 1.03,1.03 0 0 1 35.03,-3.94 1.03,1.03 0 0 1 34,-4.97 1.03,1.03 0 0 1 35.03,-6 a 1.03,1.03 0 0 1 1.03,1.03 z m -7.03,1.03 v 0 C 28.446333,-3.94 28,-4.3863333 28,-4.97 V -6 h 2.06 v 1.03 c 0,0.5836667 -0.446333,1.03 -1.03,1.03 z m -8,0 H 20 V -6 h 1.03 c 0.583667,0 1.03,0.4463333 1.03,1.03 v 0 c 0,0.5836667 -0.446333,1.03 -1.03,1.03 z m -0.97,0 H 18 V -4.97 C 18,-5.5536667 18.446333,-6 19.03,-6 h 1.03 z m -6,-1.03 A 1.03,1.03 0 0 1 13.03,-3.94 1.03,1.03 0 0 1 12,-4.97 1.03,1.03 0 0 1 13.03,-6 1.03,1.03 0 0 1 14.06,-4.97 Z M 60,-8 h 2.06 v 2.06 H 60 Z m -2,0 h 2.06 v 2.06 H 58 Z m -2.97,2.06 H 54 V -8 h 2.06 v 1.03 c 0,0.5836667 -0.446333,1.03 -1.03,1.03 z M 52,-8 h 2.06 v 2.06 H 52 Z m -2,0 h 2.06 v 2.06 H 50 Z m -2,0 h 2.06 v 2.06 H 48 Z m -2,0 h 2.06 v 2.06 H 46 Z m -2,0 h 2.06 v 2.06 H 44 Z m -4,0 h 2.06 v 2.06 H 40 Z m -6.97,2.06 v 0 C 32.446333,-5.94 32,-6.3863333 32,-6.97 V -8 h 2.06 v 1.03 c 0,0.5836667 -0.446333,1.03 -1.03,1.03 z M 28,-8 h 2.06 v 2.06 H 28 Z m -2,0 h 2.06 v 2.06 H 26 Z m -2,0 h 2.06 v 2.06 H 24 Z m 0.06,2.06 H 23.03 C 22.446333,-5.94 22,-6.3863333 22,-6.97 v 0 C 22,-7.5536667 22.446333,-8 23.03,-8 h 1.03 z m -7.03,0 v 0 C 16.446333,-5.94 16,-6.3863333 16,-6.97 V -8 h 2.06 v 1.03 c 0,0.5836667 -0.446333,1.03 -1.03,1.03 z m -6,0 H 10 V -8 h 1.03 c 0.583667,0 1.03,0.4463333 1.03,1.03 v 0 c 0,0.5836667 -0.446333,1.03 -1.03,1.03 z m -0.97,0 H 9.03 C 8.4463333,-5.94 8,-6.3863333 8,-6.97 v 0 C 8,-7.5536667 8.4463333,-8 9.03,-8 h 1.03 z m -4,-1.03 A 1.03,1.03 0 0 1 5.03,-5.94 1.03,1.03 0 0 1 4,-6.97 1.03,1.03 0 0 1 5.03,-8 1.03,1.03 0 0 1 6.06,-6.97 Z m -9.03,1.03 v 0 C -3.5536667,-5.94 -4,-6.3863333 -4,-6.97 V -8 h 2.06 v 1.03 c 0,0.5836667 -0.4463333,1.03 -1.03,1.03 z m 65.03,-2 H 60 V -10 h 1.03 c 0.583667,0 1.03,0.4463333 1.03,1.03 z M 58,-10 h 2.06 v 2.06 H 58 Z m -2,0 h 2.06 v 2.06 H 56 Z m -2,0 h 2.06 v 2.06 H 54 Z m -7.94,2.06 H 44 V -8.97 C 44,-9.5536667 44.446333,-10 45.03,-10 v 0 c 0.583667,0 1.03,0.4463333 1.03,1.03 z M 40,-10 h 2.06 v 2.06 H 40 Z m 0.06,2.06 H 39.03 C 38.446333,-7.94 38,-8.3863333 38,-8.97 V -10 h 2.06 z m -5.03,0 H 34 V -10 h 2.06 v 1.03 c 0,0.5836667 -0.446333,1.03 -1.03,1.03 z M 32,-10 h 2.06 v 2.06 H 32 Z m -2,0 h 2.06 v 2.06 H 30 Z m 0.06,2.06 H 28 V -8.97 C 28,-9.5536667 28.446333,-10 29.03,-10 h 1.03 z m -4,0 H 24 V -8.97 C 24,-9.5536667 24.446333,-10 25.03,-10 v 0 c 0.583667,0 1.03,0.4463333 1.03,1.03 z m -5.03,0 v 0 C 20.446333,-7.94 20,-8.3863333 20,-8.97 V -10 h 2.06 v 1.03 c 0,0.5836667 -0.446333,1.03 -1.03,1.03 z m -2.97,0 H 16 V -10 h 1.03 c 0.583667,0 1.03,0.4463333 1.03,1.03 z M 14,-10 h 2.06 v 2.06 H 14 Z m 0.06,2.06 H 13.03 C 12.446333,-7.94 12,-8.3863333 12,-8.97 V -10 h 2.06 z m -6,-1.03 A 1.03,1.03 0 0 1 7.03,-7.94 1.03,1.03 0 0 1 6,-8.97 1.03,1.03 0 0 1 7.03,-10 1.03,1.03 0 0 1 8.06,-8.97 Z m -6,0 A 1.03,1.03 0 0 1 1.03,-7.94 1.03,1.03 0 0 1 0,-8.97 1.03,1.03 0 0 1 1.03,-10 1.03,1.03 0 0 1 2.06,-8.97 Z M -4,-10 h 2.06 v 2.06 H -4 Z m 64.06,0.06 H 58 v -1.03 c 0,-0.583667 0.446333,-1.03 1.03,-1.03 v 0 c 0.583667,0 1.03,0.446333 1.03,1.03 z M 54,-12 h 2.06 v 2.06 H 54 Z m 0.06,2.06 h -1.03 c -0.583667,0 -1.03,-0.446333 -1.03,-1.03 v 0 c 0,-0.583667 0.446333,-1.03 1.03,-1.03 h 1.03 z m -12,0 H 40 V -12 h 1.03 c 0.583667,0 1.03,0.446333 1.03,1.03 z M 38,-12 h 2.06 v 2.06 H 38 Z m -2,0 h 2.06 v 2.06 H 36 Z m -2,0 h 2.06 v 2.06 H 34 Z m -2,0 h 2.06 v 2.06 H 32 Z m 0.06,2.06 H 30 v -1.03 c 0,-0.583667 0.446333,-1.03 1.03,-1.03 h 1.03 z m -9.03,0 H 22 V -12 h 1.03 c 0.583667,0 1.03,0.446333 1.03,1.03 v 0 c 0,0.583667 -0.446333,1.03 -1.03,1.03 z M 20,-12 h 2.06 v 2.06 H 20 Z m 0.06,2.06 H 19.03 C 18.446333,-9.94 18,-10.386333 18,-10.97 V -12 h 2.06 z m -6,0 H 12 v -1.03 c 0,-0.583667 0.446333,-1.03 1.03,-1.03 v 0 c 0.583667,0 1.03,0.446333 1.03,1.03 z m -4,-1.03 A 1.03,1.03 0 0 1 9.03,-9.94 1.03,1.03 0 0 1 8,-10.97 1.03,1.03 0 0 1 9.03,-12 a 1.03,1.03 0 0 1 1.03,1.03 z M -4,-12 h 2.06 v 2.06 H -4 Z m 66.06,-0.97 a 1.03,1.03 0 0 1 -1.03,1.03 1.03,1.03 0 0 1 -1.03,-1.03 1.03,1.03 0 0 1 1.03,-1.03 1.03,1.03 0 0 1 1.03,1.03 z m -5.03,1.03 H 56 V -14 h 1.03 c 0.583667,0 1.03,0.446333 1.03,1.03 v 0 c 0,0.583667 -0.446333,1.03 -1.03,1.03 z M 54,-14 h 2.06 v 2.06 H 54 Z m -2.97,2.06 v 0 c -0.583667,0 -1.03,-0.446333 -1.03,-1.03 V -14 h 2.06 v 1.03 c 0,0.583667 -0.446333,1.03 -1.03,1.03 z m -4.97,-1.03 a 1.03,1.03 0 0 1 -1.03,1.03 1.03,1.03 0 0 1 -1.03,-1.03 1.03,1.03 0 0 1 1.03,-1.03 1.03,1.03 0 0 1 1.03,1.03 z m -6,1.03 H 38 v -1.03 c 0,-0.583667 0.446333,-1.03 1.03,-1.03 v 0 c 0.583667,0 1.03,0.446333 1.03,1.03 z m -4,0 H 34 v -1.03 c 0,-0.583667 0.446333,-1.03 1.03,-1.03 v 0 c 0.583667,0 1.03,0.446333 1.03,1.03 z m -10,-1.03 a 1.03,1.03 0 0 1 -1.03,1.03 1.03,1.03 0 0 1 -1.03,-1.03 1.03,1.03 0 0 1 1.03,-1.03 1.03,1.03 0 0 1 1.03,1.03 z m -4,1.03 H 20 V -14 h 1.03 c 0.583667,0 1.03,0.446333 1.03,1.03 z M 18,-14 h 2.06 v 2.06 H 18 Z m 0.06,2.06 h -1.03 c -0.583667,0 -1.03,-0.446333 -1.03,-1.03 V -14 h 2.06 z m -6,-1.03 a 1.03,1.03 0 0 1 -1.03,1.03 1.03,1.03 0 0 1 -1.03,-1.03 1.03,1.03 0 0 1 1.03,-1.03 1.03,1.03 0 0 1 1.03,1.03 z m -5.03,1.03 H 6 V -14 h 2.06 v 1.03 c 0,0.583667 -0.4463333,1.03 -1.03,1.03 z m -0.97,0 H 5.03 C 4.4463333,-11.94 4,-12.386333 4,-12.97 V -14 h 2.06 z m -7.03,0 H -2 V -14 h 2.06 v 1.03 c 0,0.583667 -0.44633333,1.03 -1.03,1.03 z M -4,-14 h 2.06 v 2.06 H -4 Z m 58,-2 h 2.06 v 2.06 H 54 Z m -2,0 h 2.06 v 2.06 H 52 Z m -2,0 h 2.06 v 2.06 H 50 Z m -2,0 h 2.06 v 2.06 H 48 Z m 0.06,2.06 h -1.03 c -0.583667,0 -1.03,-0.446333 -1.03,-1.03 v 0 c 0,-0.583667 0.446333,-1.03 1.03,-1.03 h 1.03 z m -6,-1.03 a 1.03,1.03 0 0 1 -1.03,1.03 1.03,1.03 0 0 1 -1.03,-1.03 1.03,1.03 0 0 1 1.03,-1.03 1.03,1.03 0 0 1 1.03,1.03 z M 16,-16 h 2.06 v 2.06 H 16 Z m 0.06,2.06 h -1.03 c -0.583667,0 -1.03,-0.446333 -1.03,-1.03 V -16 h 2.06 z m -7.03,0 H 8 V -16 h 1.03 c 0.5836667,0 1.03,0.446333 1.03,1.03 v 0 c 0,0.583667 -0.4463333,1.03 -1.03,1.03 z M 6,-16 h 2.06 v 2.06 H 6 Z m -2,0 h 2.06 v 2.06 H 4 Z m -2,0 h 2.06 v 2.06 H 2 Z m -2,0 h 2.06 v 2.06 H 0 Z m -2,0 h 2.06 v 2.06 H -2 Z m 0.06,2.06 H -4 v -1.03 c 0,-0.583667 0.4463333,-1.03 1.03,-1.03 h 1.03 z m 62.97,-2 H 60 V -18 h 1.03 c 0.583667,0 1.03,0.446333 1.03,1.03 v 0 c 0,0.583667 -0.446333,1.03 -1.03,1.03 z M 58,-18 h 2.06 v 2.06 H 58 Z m -2,0 h 2.06 v 2.06 H 56 Z m 0.06,2.06 H 54 v -1.03 c 0,-0.583667 0.446333,-1.03 1.03,-1.03 h 1.03 z M 50,-18 h 2.06 v 2.06 H 50 Z m -2,0 h 2.06 v 2.06 H 48 Z m -2.97,2.06 H 44 V -18 h 1.03 c 0.583667,0 1.03,0.446333 1.03,1.03 v 0 c 0,0.583667 -0.446333,1.03 -1.03,1.03 z m -0.97,0 h -1.03 c -0.583667,0 -1.03,-0.446333 -1.03,-1.03 v 0 c 0,-0.583667 0.446333,-1.03 1.03,-1.03 h 1.03 z m -4,-1.03 a 1.03,1.03 0 0 1 -1.03,1.03 1.03,1.03 0 0 1 -1.03,-1.03 1.03,1.03 0 0 1 1.03,-1.03 1.03,1.03 0 0 1 1.03,1.03 z M 16,-18 h 2.06 v 2.06 H 16 Z m -2,0 h 2.06 v 2.06 H 14 Z m 0.06,2.06 h -1.03 c -0.583667,0 -1.03,-0.446333 -1.03,-1.03 V -18 h 2.06 z m -6,0 H 6 v -1.03 C 6,-17.553667 6.4463333,-18 7.03,-18 v 0 c 0.5836667,0 1.03,0.446333 1.03,1.03 z M 2,-18 h 2.06 v 2.06 H 2 Z m -1.94,2.06 H -2 v -1.03 c 0,-0.583667 0.4463333,-1.03 1.03,-1.03 v 0 c 0.58366667,0 1.03,0.446333 1.03,1.03 z m 58,-2 H 56 v -1.03 c 0,-0.583667 0.446333,-1.03 1.03,-1.03 v 0 c 0.583667,0 1.03,0.446333 1.03,1.03 z m -5.03,0 H 52 V -20 h 1.03 c 0.583667,0 1.03,0.446333 1.03,1.03 v 0 c 0,0.583667 -0.446333,1.03 -1.03,1.03 z M 50,-20 h 2.06 v 2.06 H 50 Z m -2,0 h 2.06 v 2.06 H 48 Z m 0.06,2.06 h -1.03 c -0.583667,0 -1.03,-0.446333 -1.03,-1.03 v 0 c 0,-0.583667 0.446333,-1.03 1.03,-1.03 h 1.03 z m -29.03,0 H 18 V -20 h 2.06 v 1.03 c 0,0.583667 -0.446333,1.03 -1.03,1.03 z M 16,-20 h 2.06 v 2.06 H 16 Z m -2,0 h 2.06 v 2.06 H 14 Z m -2,0 h 2.06 v 2.06 H 12 Z m -2,0 h 2.06 v 2.06 H 10 Z m 0.06,2.06 H 9.03 C 8.4463333,-17.94 8,-18.386333 8,-18.97 v 0 C 8,-19.553667 8.4463333,-20 9.03,-20 h 1.03 z M 2,-20 h 2.06 v 2.06 H 2 Z m 59.03,0.06 v 0 c -0.583667,0 -1.03,-0.446333 -1.03,-1.03 V -22 h 2.06 v 1.03 c 0,0.583667 -0.446333,1.03 -1.03,1.03 z m -10.97,0 H 48 v -1.03 c 0,-0.583667 0.446333,-1.03 1.03,-1.03 v 0 c 0.583667,0 1.03,0.446333 1.03,1.03 z m -5.03,0 H 44 V -22 h 1.03 c 0.583667,0 1.03,0.446333 1.03,1.03 v 0 c 0,0.583667 -0.446333,1.03 -1.03,1.03 z m -0.97,0 h -1.03 c -0.583667,0 -1.03,-0.446333 -1.03,-1.03 v 0 c 0,-0.583667 0.446333,-1.03 1.03,-1.03 h 1.03 z m -4,-1.03 a 1.03,1.03 0 0 1 -1.03,1.03 1.03,1.03 0 0 1 -1.03,-1.03 1.03,1.03 0 0 1 1.03,-1.03 1.03,1.03 0 0 1 1.03,1.03 z M 18,-22 h 2.06 v 2.06 H 18 Z m -8,0 h 2.06 v 2.06 H 10 Z m -2.97,2.06 H 6 V -22 h 1.03 c 0.5836667,0 1.03,0.446333 1.03,1.03 v 0 c 0,0.583667 -0.4463333,1.03 -1.03,1.03 z M 4,-22 h 2.06 v 2.06 H 4 Z m -2,0 h 2.06 v 2.06 H 2 Z m -2,0 h 2.06 v 2.06 H 0 Z m 0.06,2.06 h -1.03 c -0.5836667,0 -1.03,-0.446333 -1.03,-1.03 v 0 C -2,-21.553667 -1.5536667,-22 -0.97,-22 H 0.06 Z M 60,-24 h 2.06 v 2.06 H 60 Z m -2.97,2.06 v 0 c -0.583667,0 -1.03,-0.446333 -1.03,-1.03 V -24 h 2.06 v 1.03 c 0,0.583667 -0.446333,1.03 -1.03,1.03 z m -2.97,-1.03 a 1.03,1.03 0 0 1 -1.03,1.03 1.03,1.03 0 0 1 -1.03,-1.03 1.03,1.03 0 0 1 1.03,-1.03 1.03,1.03 0 0 1 1.03,1.03 z m -6,0 a 1.03,1.03 0 0 1 -1.03,1.03 1.03,1.03 0 0 1 -1.03,-1.03 1.03,1.03 0 0 1 1.03,-1.03 1.03,1.03 0 0 1 1.03,1.03 z M 18,-24 h 2.06 v 2.06 H 18 Z m -2,0 h 2.06 v 2.06 H 16 Z m 0.06,2.06 h -1.03 c -0.583667,0 -1.03,-0.446333 -1.03,-1.03 v 0 c 0,-0.583667 0.446333,-1.03 1.03,-1.03 h 1.03 z M 10,-24 h 2.06 v 2.06 H 10 Z m 0.06,2.06 H 9.03 C 8.4463333,-21.94 8,-22.386333 8,-22.97 v 0 C 8,-23.553667 8.4463333,-24 9.03,-24 h 1.03 z M 2,-24 h 2.06 v 2.06 H 2 Z m -2,0 h 2.06 v 2.06 H 0 Z m 62.06,0.06 H 60 V -26 h 1.03 c 0.583667,0 1.03,0.446333 1.03,1.03 z M 58,-26 h 2.06 v 2.06 H 58 Z m 0.06,2.06 H 56 v -1.03 c 0,-0.583667 0.446333,-1.03 1.03,-1.03 h 1.03 z m -7.03,0 H 50 V -26 h 1.03 c 0.583667,0 1.03,0.446333 1.03,1.03 v 0 c 0,0.583667 -0.446333,1.03 -1.03,1.03 z m -0.97,0 h -1.03 c -0.583667,0 -1.03,-0.446333 -1.03,-1.03 v 0 c 0,-0.583667 0.446333,-1.03 1.03,-1.03 h 1.03 z m -9.03,0 H 40 V -26 h 2.06 v 1.03 c 0,0.583667 -0.446333,1.03 -1.03,1.03 z m -0.97,0 h -1.03 c -0.583667,0 -1.03,-0.446333 -1.03,-1.03 v 0 c 0,-0.583667 0.446333,-1.03 1.03,-1.03 h 1.03 z M 18,-26 h 2.06 v 2.06 H 18 Z m 0.06,2.06 H 16 v -1.03 c 0,-0.583667 0.446333,-1.03 1.03,-1.03 h 1.03 z M 10,-26 h 2.06 v 2.06 H 10 Z m -2.97,2.06 H 6 V -26 h 1.03 c 0.5836667,0 1.03,0.446333 1.03,1.03 v 0 c 0,0.583667 -0.4463333,1.03 -1.03,1.03 z M 4,-26 h 2.06 v 2.06 H 4 Z m -2,0 h 2.06 v 2.06 H 2 Z m 0.06,2.06 H 0 v -1.03 C 0,-25.553667 0.44633333,-26 1.03,-26 h 1.03 z m 58,-2 H 58 v -1.03 c 0,-0.583667 0.446333,-1.03 1.03,-1.03 v 0 c 0.583667,0 1.03,0.446333 1.03,1.03 z m -5.03,0 v 0 c -0.583667,0 -1.03,-0.446333 -1.03,-1.03 V -28 h 2.06 v 1.03 c 0,0.583667 -0.446333,1.03 -1.03,1.03 z m -6.97,-1.03 a 1.03,1.03 0 0 1 -1.03,1.03 1.03,1.03 0 0 1 -1.03,-1.03 1.03,1.03 0 0 1 1.03,-1.03 1.03,1.03 0 0 1 1.03,1.03 z M 40,-28 h 2.06 v 2.06 H 40 Z m -19.94,2.06 H 18 v -1.03 c 0,-0.583667 0.446333,-1.03 1.03,-1.03 v 0 c 0.583667,0 1.03,0.446333 1.03,1.03 z m -7.03,0 H 12 V -28 h 2.06 v 1.03 c 0,0.583667 -0.446333,1.03 -1.03,1.03 z M 10,-28 h 2.06 v 2.06 H 10 Z m 0.06,2.06 H 9.03 C 8.4463333,-25.94 8,-26.386333 8,-26.97 v 0 C 8,-27.553667 8.4463333,-28 9.03,-28 h 1.03 z m -11.03,0 H -2 V -28 h 2.06 v 1.03 c 0,0.583667 -0.44633333,1.03 -1.03,1.03 z m -0.97,0 h -1.03 c -0.5836667,0 -1.03,-0.446333 -1.03,-1.03 v 0 c 0,-0.583667 0.4463333,-1.03 1.03,-1.03 h 1.03 z m 64,-3.03 a 1.03,1.03 0 0 1 -1.03,1.03 1.03,1.03 0 0 1 -1.03,-1.03 1.03,1.03 0 0 1 1.03,-1.03 1.03,1.03 0 0 1 1.03,1.03 z m -6,1.03 H 54 v -1.03 c 0,-0.583667 0.446333,-1.03 1.03,-1.03 v 0 c 0.583667,0 1.03,0.446333 1.03,1.03 z m -5.03,0 H 50 V -30 h 1.03 c 0.583667,0 1.03,0.446333 1.03,1.03 v 0 c 0,0.583667 -0.446333,1.03 -1.03,1.03 z m -0.97,0 h -1.03 c -0.583667,0 -1.03,-0.446333 -1.03,-1.03 v 0 c 0,-0.583667 0.446333,-1.03 1.03,-1.03 h 1.03 z m -7.03,0 H 42 V -30 h 2.06 v 1.03 c 0,0.583667 -0.446333,1.03 -1.03,1.03 z m -0.97,0 H 40 v -1.03 c 0,-0.583667 0.446333,-1.03 1.03,-1.03 h 1.03 z m -28,0 H 12 v -1.03 c 0,-0.583667 0.446333,-1.03 1.03,-1.03 v 0 c 0.583667,0 1.03,0.446333 1.03,1.03 z m -9.03,0 H 4 V -30 h 1.03 c 0.5836667,0 1.03,0.446333 1.03,1.03 v 0 c 0,0.583667 -0.4463333,1.03 -1.03,1.03 z m -0.97,0 H 3.03 C 2.4463333,-27.94 2,-28.386333 2,-28.97 v 0 C 2,-29.553667 2.4463333,-30 3.03,-30 h 1.03 z m -4,0 H -2 v -1.03 c 0,-0.583667 0.4463333,-1.03 1.03,-1.03 v 0 c 0.58366667,0 1.03,0.446333 1.03,1.03 z m 58.97,-2 v 0 c -0.583667,0 -1.03,-0.446333 -1.03,-1.03 V -32 h 2.06 v 1.03 c 0,0.583667 -0.446333,1.03 -1.03,1.03 z m -10.97,-1.03 a 1.03,1.03 0 0 1 -1.03,1.03 1.03,1.03 0 0 1 -1.03,-1.03 1.03,1.03 0 0 1 1.03,-1.03 1.03,1.03 0 0 1 1.03,1.03 z m -4,1.03 H 42 v -1.03 c 0,-0.583667 0.446333,-1.03 1.03,-1.03 v 0 c 0.583667,0 1.03,0.446333 1.03,1.03 z m -5.03,0 v 0 c -0.583667,0 -1.03,-0.446333 -1.03,-1.03 V -32 h 2.06 v 1.03 c 0,0.583667 -0.446333,1.03 -1.03,1.03 z m -28,0 H 10 V -32 h 1.03 c 0.583667,0 1.03,0.446333 1.03,1.03 v 0 c 0,0.583667 -0.446333,1.03 -1.03,1.03 z M 8,-32 h 2.06 v 2.06 H 8 Z m 0.06,2.06 H 7.03 C 6.4463333,-29.94 6,-30.386333 6,-30.97 v 0 C 6,-31.553667 6.4463333,-32 7.03,-32 h 1.03 z m -7.03,0 v 0 C 0.44633333,-29.94 0,-30.386333 0,-30.97 V -32 h 2.06 v 1.03 c 0,0.583667 -0.4463333,1.03 -1.03,1.03 z m -2.97,-1.03 a 1.03,1.03 0 0 1 -1.03,1.03 1.03,1.03 0 0 1 -1.03,-1.03 1.03,1.03 0 0 1 1.03,-1.03 1.03,1.03 0 0 1 1.03,1.03 z m 62.97,-0.97 H 60 V -34 h 1.03 c 0.583667,0 1.03,0.446333 1.03,1.03 v 0 c 0,0.583667 -0.446333,1.03 -1.03,1.03 z M 58,-34 h 2.06 v 2.06 H 58 Z m -2,0 h 2.06 v 2.06 H 56 Z m 0.06,2.06 h -1.03 c -0.583667,0 -1.03,-0.446333 -1.03,-1.03 V -34 h 2.06 z m -7.03,0 v 0 c -0.583667,0 -1.03,-0.446333 -1.03,-1.03 V -34 h 2.06 v 1.03 c 0,0.583667 -0.446333,1.03 -1.03,1.03 z m -8,0 H 40 V -34 h 1.03 c 0.583667,0 1.03,0.446333 1.03,1.03 v 0 c 0,0.583667 -0.446333,1.03 -1.03,1.03 z M 38,-34 h 2.06 v 2.06 H 38 Z m -2,0 h 2.06 v 2.06 H 36 Z m 0.06,2.06 h -1.03 c -0.583667,0 -1.03,-0.446333 -1.03,-1.03 v 0 c 0,-0.583667 0.446333,-1.03 1.03,-1.03 h 1.03 z m -6,-1.03 a 1.03,1.03 0 0 1 -1.03,1.03 1.03,1.03 0 0 1 -1.03,-1.03 1.03,1.03 0 0 1 1.03,-1.03 1.03,1.03 0 0 1 1.03,1.03 z m -5.03,1.03 v 0 c -0.583667,0 -1.03,-0.446333 -1.03,-1.03 V -34 h 2.06 v 1.03 c 0,0.583667 -0.446333,1.03 -1.03,1.03 z m -4,0 H 20 V -34 h 1.03 c 0.583667,0 1.03,0.446333 1.03,1.03 v 0 c 0,0.583667 -0.446333,1.03 -1.03,1.03 z m -0.97,0 h -1.03 c -0.583667,0 -1.03,-0.446333 -1.03,-1.03 V -34 h 2.06 z m -15.03,0 v 0 C 4.4463333,-31.94 4,-32.386333 4,-32.97 V -34 h 2.06 v 1.03 c 0,0.583667 -0.4463333,1.03 -1.03,1.03 z M 0,-34 h 2.06 v 2.06 H 0 Z m 0.06,2.06 h -1.03 c -0.5836667,0 -1.03,-0.446333 -1.03,-1.03 V -34 H 0.06 Z M 58,-36 h 2.06 v 2.06 H 58 Z m -4,0 h 2.06 v 2.06 H 54 Z m -2.97,2.06 H 50 V -36 h 1.03 c 0.583667,0 1.03,0.446333 1.03,1.03 v 0 c 0,0.583667 -0.446333,1.03 -1.03,1.03 z M 48,-36 h 2.06 v 2.06 H 48 Z m -2,0 h 2.06 v 2.06 H 46 Z m 0.06,2.06 h -1.03 c -0.583667,0 -1.03,-0.446333 -1.03,-1.03 V -36 h 2.06 z M 38,-36 h 2.06 v 2.06 H 38 Z m 0.06,2.06 H 36 v -1.03 c 0,-0.583667 0.446333,-1.03 1.03,-1.03 h 1.03 z m -5.03,0 H 32 V -36 h 1.03 c 0.583667,0 1.03,0.446333 1.03,1.03 v 0 c 0,0.583667 -0.446333,1.03 -1.03,1.03 z m -0.97,0 h -1.03 c -0.583667,0 -1.03,-0.446333 -1.03,-1.03 V -36 h 2.06 z m -5.03,0 H 26 V -36 h 2.06 v 1.03 c 0,0.583667 -0.446333,1.03 -1.03,1.03 z M 24,-36 h 2.06 v 2.06 H 24 Z m -6,0 h 2.06 v 2.06 H 18 Z m -8.97,2.06 H 8 V -36 h 1.03 c 0.5836667,0 1.03,0.446333 1.03,1.03 v 0 c 0,0.583667 -0.4463333,1.03 -1.03,1.03 z M 6,-36 h 2.06 v 2.06 H 6 Z m -2,0 h 2.06 v 2.06 H 4 Z m -2,0 h 2.06 v 2.06 H 2 Z m -2,0 h 2.06 v 2.06 H 0 Z m -2,0 h 2.06 v 2.06 H -2 Z m 63.03,0.06 H 60 V -38 h 2.06 v 1.03 c 0,0.583667 -0.446333,1.03 -1.03,1.03 z M 58,-38 h 2.06 v 2.06 H 58 Z m -2,0 h 2.06 v 2.06 H 56 Z m 0.06,2.06 H 54 v -1.03 c 0,-0.583667 0.446333,-1.03 1.03,-1.03 h 1.03 z M 48,-38 h 2.06 v 2.06 H 48 Z m -2,0 h 2.06 v 2.06 H 46 Z m -2,0 h 2.06 v 2.06 H 44 Z m 0.06,2.06 h -1.03 c -0.583667,0 -1.03,-0.446333 -1.03,-1.03 V -38 h 2.06 z m -4,0 H 38 v -1.03 c 0,-0.583667 0.446333,-1.03 1.03,-1.03 v 0 c 0.583667,0 1.03,0.446333 1.03,1.03 z m -5.03,0 v 0 c -0.583667,0 -1.03,-0.446333 -1.03,-1.03 V -38 h 2.06 v 1.03 c 0,0.583667 -0.446333,1.03 -1.03,1.03 z M 30,-38 h 2.06 v 2.06 H 30 Z m -1.94,2.06 H 26 V -38 h 1.03 c 0.583667,0 1.03,0.446333 1.03,1.03 z m -2,0 H 24 v -1.03 c 0,-0.583667 0.446333,-1.03 1.03,-1.03 h 1.03 z M 18,-38 h 2.06 v 2.06 H 18 Z m -2.97,2.06 v 0 c -0.583667,0 -1.03,-0.446333 -1.03,-1.03 V -38 h 2.06 v 1.03 c 0,0.583667 -0.446333,1.03 -1.03,1.03 z m -6.97,0 H 6 V -38 h 1.03 c 0.5836667,0 1.03,0.446333 1.03,1.03 z M 4,-38 h 2.06 v 2.06 H 4 Z m -4,0 h 2.06 v 2.06 H 0 Z m 0.06,2.06 H -2 v -1.03 c 0,-0.583667 0.4463333,-1.03 1.03,-1.03 h 1.03 z m 62,-2 H 60 V -40 h 1.03 c 0.583667,0 1.03,0.446333 1.03,1.03 z M 58,-40 h 2.06 v 2.06 H 58 Z m 0.06,2.06 H 56 v -1.03 c 0,-0.583667 0.446333,-1.03 1.03,-1.03 h 1.03 z m -7.03,0 H 50 V -40 h 1.03 c 0.583667,0 1.03,0.446333 1.03,1.03 v 0 c 0,0.583667 -0.446333,1.03 -1.03,1.03 z M 48,-40 h 2.06 v 2.06 H 48 Z m -2,0 h 2.06 v 2.06 H 46 Z m -2,0 h 2.06 v 2.06 H 44 Z m -2,0 h 2.06 v 2.06 H 42 Z m 0.06,2.06 h -1.03 c -0.583667,0 -1.03,-0.446333 -1.03,-1.03 v 0 c 0,-0.583667 0.446333,-1.03 1.03,-1.03 h 1.03 z m -5.03,0 H 36 V -40 h 1.03 c 0.583667,0 1.03,0.446333 1.03,1.03 v 0 c 0,0.583667 -0.446333,1.03 -1.03,1.03 z m -0.97,0 H 34 v -1.03 c 0,-0.583667 0.446333,-1.03 1.03,-1.03 h 1.03 z m -4,0 H 30 v -1.03 c 0,-0.583667 0.446333,-1.03 1.03,-1.03 v 0 c 0.583667,0 1.03,0.446333 1.03,1.03 z m -12,0 H 18 V -40 h 1.03 c 0.583667,0 1.03,0.446333 1.03,1.03 z M 16,-40 h 2.06 v 2.06 H 16 Z m -2,0 h 2.06 v 2.06 H 14 Z m 0.06,2.06 h -1.03 c -0.583667,0 -1.03,-0.446333 -1.03,-1.03 V -40 h 2.06 z m -4,-1.03 A 1.03,1.03 0 0 1 9.03,-37.94 1.03,1.03 0 0 1 8,-38.97 1.03,1.03 0 0 1 9.03,-40 a 1.03,1.03 0 0 1 1.03,1.03 z m -4,1.03 H 4 V -40 h 1.03 c 0.5836667,0 1.03,0.446333 1.03,1.03 z M 2,-40 h 2.06 v 2.06 H 2 Z m 0.06,2.06 H 0 v -1.03 C 0,-39.553667 0.44633333,-40 1.03,-40 h 1.03 z m 42,-2 H 42 v -1.03 c 0,-0.583667 0.446333,-1.03 1.03,-1.03 v 0 c 0.583667,0 1.03,0.446333 1.03,1.03 z m -4,-1.03 a 1.03,1.03 0 0 1 -1.03,1.03 1.03,1.03 0 0 1 -1.03,-1.03 1.03,1.03 0 0 1 1.03,-1.03 1.03,1.03 0 0 1 1.03,1.03 z m -11.03,1.03 v 0 c -0.583667,0 -1.03,-0.446333 -1.03,-1.03 V -42 h 2.06 v 1.03 c 0,0.583667 -0.446333,1.03 -1.03,1.03 z m -6,0 H 22 V -42 h 1.03 c 0.583667,0 1.03,0.446333 1.03,1.03 v 0 c 0,0.583667 -0.446333,1.03 -1.03,1.03 z m -0.97,0 h -1.03 c -0.583667,0 -1.03,-0.446333 -1.03,-1.03 V -42 h 2.06 z M 16,-42 h 2.06 v 2.06 H 16 Z m -2,0 h 2.06 v 2.06 H 14 Z m -2,0 h 2.06 v 2.06 H 12 Z m 33.03,0.06 v 0 c -0.583667,0 -1.03,-0.446333 -1.03,-1.03 V -44 h 2.06 v 1.03 c 0,0.583667 -0.446333,1.03 -1.03,1.03 z m -4,0 v 0 c -0.583667,0 -1.03,-0.446333 -1.03,-1.03 V -44 h 2.06 v 1.03 c 0,0.583667 -0.446333,1.03 -1.03,1.03 z m -2.97,-1.03 a 1.03,1.03 0 0 1 -1.03,1.03 1.03,1.03 0 0 1 -1.03,-1.03 1.03,1.03 0 0 1 1.03,-1.03 1.03,1.03 0 0 1 1.03,1.03 z m -4,0 a 1.03,1.03 0 0 1 -1.03,1.03 1.03,1.03 0 0 1 -1.03,-1.03 1.03,1.03 0 0 1 1.03,-1.03 1.03,1.03 0 0 1 1.03,1.03 z M 28,-44 h 2.06 v 2.06 H 28 Z m -1.94,1.03 a 1.03,1.03 0 0 1 -1.03,1.03 1.03,1.03 0 0 1 -1.03,-1.03 1.03,1.03 0 0 1 1.03,-1.03 1.03,1.03 0 0 1 1.03,1.03 z M 20,-44 h 2.06 v 2.06 H 20 Z m -1.94,2.06 H 16 v -1.03 c 0,-0.583667 0.446333,-1.03 1.03,-1.03 v 0 c 0.583667,0 1.03,0.446333 1.03,1.03 z M 12,-44 h 2.06 v 2.06 H 12 Z m 34.06,0.06 H 44 V -46 h 1.03 c 0.583667,0 1.03,0.446333 1.03,1.03 z M 42,-46 h 2.06 v 2.06 H 42 Z m -2,0 h 2.06 v 2.06 H 40 Z m -4.97,2.06 v 0 c -0.583667,0 -1.03,-0.446333 -1.03,-1.03 V -46 h 2.06 v 1.03 c 0,0.583667 -0.446333,1.03 -1.03,1.03 z M 28,-46 h 2.06 v 2.06 H 28 Z m -5.94,2.06 H 20 V -46 h 1.03 c 0.583667,0 1.03,0.446333 1.03,1.03 z m -2,0 h -1.03 c -0.583667,0 -1.03,-0.446333 -1.03,-1.03 V -46 h 2.06 z m -6,0 H 12 v -1.03 c 0,-0.583667 0.446333,-1.03 1.03,-1.03 v 0 c 0.583667,0 1.03,0.446333 1.03,1.03 z M 40,-48 h 2.06 v 2.06 H 40 Z m -3.94,2.06 H 34 V -48 h 1.03 c 0.583667,0 1.03,0.446333 1.03,1.03 z M 32,-48 h 2.06 v 2.06 H 32 Z m -2,0 h 2.06 v 2.06 H 30 Z m -2,0 h 2.06 v 2.06 H 28 Z m -2,0 h 2.06 v 2.06 H 26 Z m 0.06,2.06 h -1.03 c -0.583667,0 -1.03,-0.446333 -1.03,-1.03 v 0 c 0,-0.583667 0.446333,-1.03 1.03,-1.03 h 1.03 z m -6,0 H 18 v -1.03 c 0,-0.583667 0.446333,-1.03 1.03,-1.03 v 0 c 0.583667,0 1.03,0.446333 1.03,1.03 z m 24.97,-2 H 44 V -50 h 2.06 v 1.03 c 0,0.583667 -0.446333,1.03 -1.03,1.03 z M 42,-50 h 2.06 v 2.06 H 42 Z m -2,0 h 2.06 v 2.06 H 40 Z m -5.94,2.06 H 32 V -50 h 1.03 c 0.583667,0 1.03,0.446333 1.03,1.03 z M 30,-50 h 2.06 v 2.06 H 30 Z m -2,0 h 2.06 v 2.06 H 28 Z m -6.97,2.06 v 0 c -0.583667,0 -1.03,-0.446333 -1.03,-1.03 V -50 h 2.06 v 1.03 c 0,0.583667 -0.446333,1.03 -1.03,1.03 z m -4,0 v 0 c -0.583667,0 -1.03,-0.446333 -1.03,-1.03 V -50 h 2.06 v 1.03 c 0,0.583667 -0.446333,1.03 -1.03,1.03 z M 44,-52 h 2.06 v 2.06 H 44 Z m -2,0 h 2.06 v 2.06 H 42 Z m -2,0 h 2.06 v 2.06 H 40 Z m 0.06,2.06 h -1.03 c -0.583667,0 -1.03,-0.446333 -1.03,-1.03 V -52 h 2.06 z m -8,0 H 30 V -52 h 1.03 c 0.583667,0 1.03,0.446333 1.03,1.03 z M 28,-52 h 2.06 v 2.06 H 28 Z m 0.06,2.06 h -1.03 c -0.583667,0 -1.03,-0.446333 -1.03,-1.03 v 0 c 0,-0.583667 0.446333,-1.03 1.03,-1.03 h 1.03 z m -6,0 H 20 V -52 h 1.03 c 0.583667,0 1.03,0.446333 1.03,1.03 z M 18,-52 h 2.06 v 2.06 H 18 Z m -2,0 h 2.06 v 2.06 H 16 Z m -2,0 h 2.06 v 2.06 H 14 Z m 0.06,2.06 h -1.03 c -0.583667,0 -1.03,-0.446333 -1.03,-1.03 V -52 h 2.06 z M 44,-54 h 2.06 v 2.06 H 44 Z m -1.94,2.06 H 40 V -54 h 1.03 c 0.583667,0 1.03,0.446333 1.03,1.03 z M 38,-54 h 2.06 v 2.06 H 38 Z m -2.97,2.06 H 34 V -54 h 1.03 c 0.583667,0 1.03,0.446333 1.03,1.03 v 0 c 0,0.583667 -0.446333,1.03 -1.03,1.03 z m -0.97,0 h -1.03 c -0.583667,0 -1.03,-0.446333 -1.03,-1.03 v 0 c 0,-0.583667 0.446333,-1.03 1.03,-1.03 h 1.03 z m -4,0 H 28 v -1.03 c 0,-0.583667 0.446333,-1.03 1.03,-1.03 v 0 c 0.583667,0 1.03,0.446333 1.03,1.03 z m -6,-1.03 a 1.03,1.03 0 0 1 -1.03,1.03 1.03,1.03 0 0 1 -1.03,-1.03 1.03,1.03 0 0 1 1.03,-1.03 1.03,1.03 0 0 1 1.03,1.03 z m -4,1.03 H 18 v -1.03 c 0,-0.583667 0.446333,-1.03 1.03,-1.03 v 0 c 0.583667,0 1.03,0.446333 1.03,1.03 z m -4,0 H 14 V -54 h 1.03 c 0.583667,0 1.03,0.446333 1.03,1.03 z M 12,-54 h 2.06 v 2.06 H 12 Z m 34.06,0.06 H 44 V -56 h 1.03 c 0.583667,0 1.03,0.446333 1.03,1.03 z m -2,0 h -1.03 c -0.583667,0 -1.03,-0.446333 -1.03,-1.03 v 0 c 0,-0.583667 0.446333,-1.03 1.03,-1.03 h 1.03 z m -4,0 H 38 v -1.03 c 0,-0.583667 0.446333,-1.03 1.03,-1.03 v 0 c 0.583667,0 1.03,0.446333 1.03,1.03 z m -8,-1.03 a 1.03,1.03 0 0 1 -1.03,1.03 1.03,1.03 0 0 1 -1.03,-1.03 1.03,1.03 0 0 1 1.03,-1.03 1.03,1.03 0 0 1 1.03,1.03 z m -6,0 a 1.03,1.03 0 0 1 -1.03,1.03 1.03,1.03 0 0 1 -1.03,-1.03 1.03,1.03 0 0 1 1.03,-1.03 1.03,1.03 0 0 1 1.03,1.03 z m -8,0 a 1.03,1.03 0 0 1 -1.03,1.03 1.03,1.03 0 0 1 -1.03,-1.03 1.03,1.03 0 0 1 1.03,-1.03 1.03,1.03 0 0 1 1.03,1.03 z m -4,1.03 H 12 v -1.03 c 0,-0.583667 0.446333,-1.03 1.03,-1.03 v 0 c 0.583667,0 1.03,0.446333 1.03,1.03 z"
   style="max-width:100%;height:auto"
   transform="matrix(13.5,0,0,13.5,108,810)" />
    
<g
   id="g2"
   transform="matrix(2.5094295,0,0,2.5094295,399.12282,399.12282)"><rect
     style="fill:#78a2d2;fill-opacity:1;stroke:none;stroke-width:0;stroke-dasharray:none"
     id="rect1"
     width="79.470001"
     height="79.4702"
     x="0.26499939"
     y="0.26490021"
     rx="999"
     ry="999" /><path
     id="path8"
     style="fill:none;stroke:#feffaf;stroke-width:2.03413;stroke-linecap:butt;stroke-linejoin:miter;stroke-miterlimit:10;stroke-dasharray:none;stroke-opacity:1"
     d="m 22.683168,41.069673 h 4.116513 c 2.273476,0 4.116483,1.833941 4.116483,4.096257 v 2.016566 c 0,3.376005 -2.750326,6.112825 -6.143031,6.112825 h -4.048046 c -2.702838,0 -5.294964,-1.068417 -7.206181,-2.970227 -1.911185,-1.901812 -2.984888,-4.481193 -2.984888,-7.170762 v -7.927298 c 0,-6.72378 5.477612,-12.17447 12.234585,-12.17447 h 25.548558 c 6.756989,0 12.234605,5.45069 12.234605,12.17447 V 52.51222 c 0,1.176288 0.469596,2.30441 1.305458,3.136166 0.83587,0.831756 1.969547,1.29905 3.15165,1.29905 h 2.622036 c 1.013475,0 1.835072,-0.817572 1.835072,-1.826076 V 53.295321 M 50.698224,32.238454 c -0.641833,0.01104 -1.496992,0.833062 -3.275993,0.844831 -1.778968,0.01188 -2.949616,-0.821488 -3.800226,-0.827768" /></g></svg>
